<svg xmlns="http://www.w3.org/2000/svg" version="1.1" xmlns:xlink="http://www.w3.org/1999/xlink" xmlns:svgjs="http://svgjs.dev/svgjs" width="1500" height="1500" viewBox="0 0 1500 1500"><rect width="1500" height="1500" fill="#ffffff"></rect><g transform="matrix(0.6666666666666666,0,0,0.6666666666666666,249.39393939393938,423.4222014629887)"><svg viewBox="0 0 396 251" data-background-color="#ffffff" preserveAspectRatio="xMidYMid meet" height="950" width="1500" xmlns="http://www.w3.org/2000/svg" xmlns:xlink="http://www.w3.org/1999/xlink"><g id="tight-bounds" transform="matrix(1,0,0,1,0.2400000000000091,3.9279380517734523)"><svg viewBox="0 0 395.52 247.2" height="247.2" width="395.52"><g><svg></svg></g><g><svg viewBox="0 0 395.52 247.2" height="247.2" width="395.52"><mask id="a1e659ef-8f08-4012-89af-7fa8be0d975d"><rect width="640" height="400" fill="white"></rect><g transform="matrix(1,0,0,1,107.31909079996159,40.407692307692315)"><svg viewBox="0 0 180.8818184000768 166.38461538461536" height="166.38461538461536" width="180.8818184000768"><g><svg viewBox="0 0 180.8818184000768 166.38461538461536" height="166.38461538461536" width="180.8818184000768"><g><svg viewBox="0 0 180.8818184000768 166.38461538461536" height="166.38461538461536" width="180.8818184000768"><g><svg viewBox="0 0 180.8818184000768 166.38461538461536" height="166.38461538461536" width="180.8818184000768"><g id="SvgjsG2202"><svg viewBox="0 0 180.8818184000768 166.38461538461536" height="166.38461538461536" width="180.8818184000768" id="SvgjsSvg2201"><g><svg viewBox="0 0 180.8818184000768 166.38461538461536" height="166.38461538461536" width="180.8818184000768"><g transform="matrix(1,0,0,1,0,0)"><svg width="180.8818184000768" viewBox="1.0099999999999998 -37.05 41.82 38.55" height="166.38461538461536" data-palette-color="#ef86c1"><path d="M7.1-35.55L14.53-35.55 21.92-12.06 29.3-35.55 36.72-35.55 24.93 0 18.9 0 7.1-35.55ZM2.51-35.55L10.25-35.55 11.69-6.84 11.69 0 2.51 0 2.51-35.55ZM33.57-35.55L41.33-35.55 41.33 0 32.13 0 32.13-6.84 33.57-35.55Z" opacity="1" transform="matrix(1,0,0,1,0,0)" fill="black" class="wordmark-text-0" id="SvgjsPath2200" stroke-width="2" stroke="black" stroke-linejoin="round"></path></svg></g></svg></g></svg></g></svg></g></svg></g></svg></g></svg></g></mask><g transform="matrix(1,0,0,1,107.31909079996159,40.407692307692315)"><svg viewBox="0 0 180.8818184000768 166.38461538461536" height="166.38461538461536" width="180.8818184000768"><g><svg viewBox="0 0 180.8818184000768 166.38461538461536" height="166.38461538461536" width="180.8818184000768"><g><svg viewBox="0 0 180.8818184000768 166.38461538461536" height="166.38461538461536" width="180.8818184000768"><g><svg viewBox="0 0 180.8818184000768 166.38461538461536" height="166.38461538461536" width="180.8818184000768"><g id="textblocktransform"><svg viewBox="0 0 180.8818184000768 166.38461538461536" height="166.38461538461536" width="180.8818184000768" id="textblock"><g><svg viewBox="0 0 180.8818184000768 166.38461538461536" height="166.38461538461536" width="180.8818184000768"><g transform="matrix(1,0,0,1,0,0)"><svg width="180.8818184000768" viewBox="1.0099999999999998 -37.05 41.82 38.55" height="166.38461538461536" data-palette-color="#ef86c1"><path d="M7.1-35.55L14.53-35.55 21.92-12.06 29.3-35.55 36.72-35.55 24.93 0 18.9 0 7.1-35.55ZM2.51-35.55L10.25-35.55 11.69-6.84 11.69 0 2.51 0 2.51-35.55ZM33.57-35.55L41.33-35.55 41.33 0 32.13 0 32.13-6.84 33.57-35.55Z" opacity="1" transform="matrix(1,0,0,1,0,0)" fill="#ef86c1" class="wordmark-text-0" data-fill-palette-color="primary" id="text-0"></path></svg></g></svg></g></svg></g></svg></g></svg></g></svg></g></svg></g><g mask="url(#a1e659ef-8f08-4012-89af-7fa8be0d975d)"><g transform="matrix(2.5240860499769835, 0, 0, 2.5240860499769835, 81.82862661872217, 1.0000000000000142)"><svg xmlns="http://www.w3.org/2000/svg" data-name="Layer 1" viewBox="4.07 1.4323611040830073 91.86008011282735 97.14407319918269" x="0" y="0" height="97.14407319918269" width="91.86008011282735" class="icon-none" data-fill-palette-color="accent" id="none"><path d="M93.43 37.74H87.66a37.68 37.68 0 0 0-75.31 0H6.57a2.5 2.5 0 0 0-2.5 2.5v27a2.5 2.5 0 0 0 2.5 2.5H19.44a30.61 30.61 0 0 0 56.79 14H90.45a2.5 2.5 0 0 0 2.5-2.5V69.76h0.48a2.5 2.5 0 0 0 2.5-2.5v-27A2.5 2.5 0 0 0 93.43 37.74Zm-2.5 27H80.62V59.7l0.26-0.21a9.25 9.25 0 0 0 3.49-7.26V49.12a35 35 0 0 0-0.6-6.38h7.16ZM20.68 52.85a4.4 4.4 0 0 1 0-0.62V49.36c0-16.06 12.9-29.34 28.75-29.6 8.44-0.16 15.77 2.6 21.18 7.93a30.59 30.59 0 0 1 8.81 21.44v3.11a4.4 4.4 0 0 1 0 0.62 12.87 12.87 0 0 0-4.55-5.15L51.37 32.41a2.5 2.5 0 0 0-2.73 0L25.22 47.71A12.87 12.87 0 0 0 20.68 52.85ZM50 6.39A32.72 32.72 0 0 1 82.66 37.74h-0.19a34.75 34.75 0 0 0-8.4-13.62c-6.39-6.29-15-9.52-24.77-9.36a34.45 34.45 0 0 0-31.66 23h-0.3A32.72 32.72 0 0 1 50 6.39ZM9.07 42.74h7.2a34.6 34.6 0 0 0-0.64 6.62v2.87a9.25 9.25 0 0 0 3.49 7.26l0.26 0.21v5.06H9.07ZM50 93.61A25.65 25.65 0 0 1 24.38 68V58.5A7.87 7.87 0 0 1 28 51.89l22-14.4 22 14.4a7.87 7.87 0 0 1 3.57 6.61V68a25.46 25.46 0 0 1-2.39 10.79H62.39V74.5a2.5 2.5 0 0 0-2.5-2.5H43.79a2.5 2.5 0 0 0-2.5 2.5V86.93a2.5 2.5 0 0 0 2.5 2.5h16.1a2.5 2.5 0 0 0 2.5-2.5V83.78h7.77A25.58 25.58 0 0 1 50 93.61ZM57.39 77v7.43H46.29V77Zm30.56 1.78h-9.3a30.4 30.4 0 0 0 1.91-9h7.39Z" fill="#d498ca" data-fill-palette-color="accent"></path></svg></g></g></svg></g><defs></defs></svg><rect width="395.52" height="247.2" fill="none" stroke="none" visibility="hidden"></rect></g></svg></g></svg>